<?xml version="1.0" encoding="UTF-8"?><svg id="a" xmlns="http://www.w3.org/2000/svg" viewBox="0 0 214.1 28.33"><defs><style>.b{fill:#e34a87;}.b,.c{fill-rule:evenodd;}.c{fill:#8158a5;}</style></defs><path class="c" d="M1.46,2.4H12.35c2.5,0,4.39,.61,5.66,1.84,1.23,1.12,1.84,2.59,1.84,4.4,0,2.48-1.31,4.12-3.94,4.91v.1c1.51,.37,2.7,1.05,3.59,2.04,.88,.99,1.33,2.25,1.33,3.78,0,1.08-.18,2.03-.55,2.86-.37,.83-.89,1.54-1.58,2.12-.69,.65-1.54,1.14-2.54,1.49-1,.34-2.15,.52-3.44,.52H1.46V2.4h0ZM11.7,12.32c2.08,0,3.78-.92,3.78-3.2,0-2.15-1.55-3.14-3.56-3.14H5.89v6.34h5.82Zm.61,10.47c2.19,0,4.01-1.07,4.01-3.49s-1.78-3.65-4.14-3.65H5.89v7.14h6.43ZM34.79,2.4h4.78l8.76,24.05h-4.78l-1.91-5.72h-9.12l-1.94,5.72h-4.53L34.79,2.4h0Zm-1.16,15.03h6.92l-1.84-5.56c-.64-1.91-1.08-3.83-1.52-5.79h-.06c-.49,1.91-.94,3.93-1.58,5.79l-1.91,5.56h0ZM55.01,2.4h4.46V7.96c0,.97-.02,1.91-.05,2.81s-.07,1.67-.11,2.3l10.22-10.67h5.43l-9.44,9.63,10.12,14.42h-5.24l-8.08-11.54-2.84,2.88v8.66h-4.46V2.4h0Zm26.97,0h17.59v3.81h-13.12v5.95h11.61v3.59h-11.61v6.79h13.42v3.91h-17.88V2.4Z"/><path class="b" d="M107.49,2.4h17.07v3.85h-12.61v6.17h10.51v3.72h-10.51v10.31h-4.46V2.4h0Zm24.35,0h4.46V22.54h11.7v3.91h-16.16V2.4h0Zm49.87,0h4.59l2.84,11.64c.59,2.58,.96,5.23,1.26,7.86h.06c.4-2.6,.85-5.43,1.45-7.98l2.94-11.51h4.4l2.91,11.48c.61,2.6,.98,5.37,1.39,8.02h.06c.35-2.57,.75-5.38,1.39-7.89l2.84-11.6h4.59l-6.66,24.05h-4.36l-3.07-12.57c-.63-2.27-.93-4.87-1.26-7.21h-.06c-.34,2.39-.66,4.86-1.23,7.21l-3.23,12.57h-4.46l-6.4-24.05Z"/><path class="c" d="M153.03,9.06c-.87,1.77-1.36,3.77-1.36,5.87,0,1.37,.2,2.72,.61,4.03,1.09,3.48,3.57,6.35,6.8,7.96,3.97,1.56,6.1-2.66,.97-4.83-1.28-.54-2.74-1.17-4.17-1.76-3.8-1.56-5.16-5.31-.04-6.93,3.19-1.01,5.99-1.6,7.15-2.34,3.56-2.25-6.79-8.46-9.96-2.01Z"/><path class="b" d="M165.05,1.57c-3.53,0-6.74,1.37-9.13,3.6,8.02-2.47,21.63,3.23,10.38,9.16-4.61,2.42,2.8,4.26,7.57,5.27,2.49,.52,3.75,.78,4.3-2,.17-.85,.26-1.74,.26-2.64,0-7.39-5.99-13.38-13.38-13.38Z"/></svg>