<?xml version="1.0" encoding="UTF-8"?><svg id="a" xmlns="http://www.w3.org/2000/svg" viewBox="0 0 52.66 52.66"><defs><style>.b{fill:#fff;fill-rule:evenodd;}</style></defs><path class="b" d="M3.56,15.26c-1.64,3.33-2.56,7.07-2.56,11.03,0,2.58,.38,5.12,1.15,7.58,2.05,6.55,6.72,11.94,12.77,14.96,7.46,2.93,11.46-5,1.83-9.07-2.4-1.01-5.14-2.2-7.83-3.31-7.13-2.94-9.7-9.98-.07-13.03,6-1.9,11.26-3.01,13.44-4.39C28.98,14.81,9.52,3.14,3.56,15.26Z"/><path class="b" d="M26.15,1.19c-6.63,0-12.65,2.57-17.15,6.75,15.07-4.65,40.64,6.07,19.5,17.2-8.65,4.55,5.27,8.01,14.22,9.89,4.68,.98,7.05,1.47,8.09-3.75,.32-1.6,.49-3.26,.49-4.96C51.29,12.45,40.03,1.19,26.15,1.19Z"/></svg>